<svg id="Layer_1" data-name="Layer 1" xmlns="http://www.w3.org/2000/svg" viewBox="0 0 400 400"><path fill="#ccc" d="M63.15 198.06h.07V54.44a18.33 18.33 0 0 1 18.31-18.32H332.9a18.34 18.34 0 0 1 18.32 18.32v143.62h13V54.44a31.32 31.32 0 0 0-31.32-31.32H81.53a31.31 31.31 0 0 0-31.31 31.32v180.67h12.93Z"/><path fill="#ccc" d="M188.09 59.94h38.26v13.01h-38.26zM181.54 323.53H77.79C45 323.53 29.3 308 21.9 295a63.19 63.19 0 0 1-8-28.46V260h167.64v13H27.59c2.24 12.28 11.54 37.49 50.2 37.49h103.75Z"/><path d="m386.12 367.68-51.3-51.3a68.68 68.68 0 1 0-9.15 9.24l51.26 51.26Zm-104.34-39.11A55.54 55.54 0 1 1 337.32 273a55.61 55.61 0 0 1-55.54 55.57Z" style="fill:#334bff"/></svg>